# xmcd
#
# Track frame offsets: 
#        182
#        12525
#        24332
#        36242
#        46597
#        57062
#        69800
#        79790
#        90462
#        100667
#        114427
#        125772
#        137697
#        147792
#        160525
#        170627
#        181525
#        192297
#        203352
#        213000
#        223487
#        235032
#        246455
#        258992
#        271177
#        280285
#        292227
#        302112
#        314047
#
# Disc length: 4339 seconds
#
# Revision: 0
# Processed by: cddbd v1.4PL0 Copyright (c) Steve Scherf et al.
# Submitted via: ExactAudioCopy v0.90b3
#
DISCID=9910f11d
DTITLE=Reno and Smiley - and the Tennessee Cutups 1951-59 - CD3
DYEAR=1993
DGENRE=Bluegrass
TTITLE0=Double Banjo Blues
TTITLE1=Reno Ride
TTITLE2=Banjo Riff
TTITLE3=Banjo Signal
TTITLE4=Mack's Hoedown
TTITLE5=Jesus Answers My Prayers
TTITLE6=Get Behind Me Satan
TTITLE7=Home Sweet Home
TTITLE8=Green Mountain Hop
TTITLE9=It Takes Me a Life Time
TTITLE10=Country Boy Rock and Roll
TTITLE11=I Know You're Married (But I Love You Still)
TTITLE12=No Longer a Sweetheart of Mine
TTITLE13=Forgotten Men
TTITLE14=Never Get to Hold You in My Arms Anymore
TTITLE15=Kneel Down
TTITLE16=Cumberland Gap
TTITLE17=Remington Ride
TTITLE18=Beer Barrel Polka
TTITLE19=Richmond Ruckus
TTITLE20=When You and I Were Young, Maggie
TTITLE21=Unwanted Love
TTITLE22=Better Luck Next Time
TTITLE23=Wall Around Your Heart
TTITLE24=Another Day
TTITLE25=Banjo Special
TTITLE26=Country Latin Special
TTITLE27=Get Ready
TTITLE28=Keep Me Humble
EXTD=
EXTT0=
EXTT1=
EXTT2=
EXTT3=
EXTT4=
EXTT5=
EXTT6=
EXTT7=
EXTT8=
EXTT9=
EXTT10=
EXTT11=
EXTT12=
EXTT13=
EXTT14=
EXTT15=
EXTT16=
EXTT17=
EXTT18=
EXTT19=
EXTT20=
EXTT21=
EXTT22=
EXTT23=
EXTT24=
EXTT25=
EXTT26=
EXTT27=
EXTT28=
PLAYORDER=
